<svg xmlns="http://www.w3.org/2000/svg" width="192" height="48" viewBox="0 0 192 48" fill="#6cf">
    <path id="Hanasaka" d="M7.09,46.519l-0.1-.192a0.635,0.635,0,0,1,.05-0.72A2.367,2.367,0,0,1,7.8,44.839a2.645,2.645,0,0,1,.756-0.36,1.961,1.961,0,0,1,1.008-.072,20.535,20.535,0,0,0,3.931.864q1.663,0.144,3.175.144a26.357,26.357,0,0,0,9.551-1.68,30.024,30.024,0,0,0,8.014-4.608,44.638,44.638,0,0,0,6.7-6.672,82.376,82.376,0,0,0,5.67-7.872H57.138A50.219,50.219,0,0,0,52.7,31.711a13,13,0,0,0-1.663,5.4,2.986,2.986,0,0,0,.6,1.944,2.083,2.083,0,0,0,1.714.744,4.168,4.168,0,0,0,.857-0.1,6.592,6.592,0,0,0,.958-0.288A10.341,10.341,0,0,0,58.7,37.231q1.41-1.368,2.822-3l-0.353-.336a18.042,18.042,0,0,1-1.84,1.944,13.04,13.04,0,0,1-3,2.136,5,5,0,0,1-1.865.672,0.66,0.66,0,0,1-.655-0.816,3.651,3.651,0,0,1,.151-0.936q0.151-.551.4-1.32a37.363,37.363,0,0,1,2.092-4.44q1.386-2.567,3.15-5.352,0.654-1.008,2.167-3.024t3.553-4.536q2.041-2.52,4.36-5.088t4.637-4.752a31.244,31.244,0,0,1,4.36-3.5,6.77,6.77,0,0,1,3.452-1.32,1.522,1.522,0,0,1,.958.312A1.227,1.227,0,0,1,83.5,4.9a1.075,1.075,0,0,1-.025.216,1.031,1.031,0,0,0-.025.216H84.1a1.992,1.992,0,0,0-.5-1.9,2.65,2.65,0,0,0-1.663-.5,8.659,8.659,0,0,0-3.881,1.2A33.047,33.047,0,0,0,73.14,7.423a62.579,62.579,0,0,0-5.368,4.8q-2.722,2.712-5.317,5.712t-4.813,5.976H47.058V23.863q0.856-1.343,2.318-3.5T52.7,15.943a27.564,27.564,0,0,1,3.881-3.888q0.4,0.144.806,0.264T58.2,12.535q0.856,0.192,1.562.288a9.676,9.676,0,0,0,1.31.1,4.472,4.472,0,0,0,2.6-.6,1.694,1.694,0,0,0,.832-1.368A1.613,1.613,0,0,0,63.765,9.7a3.408,3.408,0,0,0-2.142-.576,10.52,10.52,0,0,0-3.15.48,15.816,15.816,0,0,0-3,1.3Q52.2,9.847,48.444,8.791a57.733,57.733,0,0,0-6.93-1.536,27.462,27.462,0,0,0-3.881-.288,18.1,18.1,0,0,0-5.141.672,6.176,6.176,0,0,1-.958.024,5.911,5.911,0,0,1-.958-0.12,3.69,3.69,0,0,1-1.562-.768,1.668,1.668,0,0,0,.554-1.248A2.282,2.282,0,0,0,28.712,3.7a3.619,3.619,0,0,0-1.159-.72Q27,2.791,26.545,2.647a2.484,2.484,0,0,1-1.084-.576,1.334,1.334,0,0,1-.58-1.008,0.752,0.752,0,0,1,.151-0.48,0.49,0.49,0,0,0-.3-0.024,0.766,0.766,0,0,0-.5.408,1.577,1.577,0,0,0-.3.624,3,3,0,0,0-.1.768,5.644,5.644,0,0,0,.428,2.088,5.134,5.134,0,0,0,1.033,1.7,3.8,3.8,0,0,0,1.21.792,3.25,3.25,0,0,0,1.21.264,1.574,1.574,0,0,0,.479-0.072q0.227-.072.428-0.12a3.156,3.156,0,0,0,1.613,1.008,1.5,1.5,0,0,0,.655.144,10.14,10.14,0,0,0-4.712,3.7,8.609,8.609,0,0,0-1.537,4.752,7.232,7.232,0,0,0,.907,3.528,6.776,6.776,0,0,0,2.7,2.664,8.869,8.869,0,0,0,4.41,1.008,8.678,8.678,0,0,0,3.906-.912A7.4,7.4,0,0,0,39.5,20.311a3.177,3.177,0,0,1,.756-0.96,2.246,2.246,0,0,1,.806-0.48,2.21,2.21,0,0,1,.3-0.072,1.95,1.95,0,0,1,.3-0.024,0.711,0.711,0,0,1,.806.384q0.1,0.288.252,0.168a0.631,0.631,0,0,0,.151-0.5,1,1,0,0,0-.353-0.816,1.313,1.313,0,0,0-.857-0.288,1.757,1.757,0,0,0-.958.288,2.457,2.457,0,0,0-.353.288,7.668,7.668,0,0,0,.151-0.888,8.636,8.636,0,0,0,.05-0.936,0.88,0.88,0,0,0,.05-0.288V15.895a2.434,2.434,0,0,0-.2-1.1,1.494,1.494,0,0,0-1.411-1.056,1.4,1.4,0,0,0-1.26.768,0.681,0.681,0,0,0-.151.432,0.154,0.154,0,0,0,.151.192,0.3,0.3,0,0,0,.2-0.1,0.718,0.718,0,0,1,.5-0.144,1.462,1.462,0,0,1,1.21.576,1.09,1.09,0,0,1,.252.456,4,4,0,0,1,.151.7,5.731,5.731,0,0,1-1.184,3.408,8.012,8.012,0,0,1-2.8,2.328,7.615,7.615,0,0,1-3.478.84,5.519,5.519,0,0,1-4.435-1.824A6.3,6.3,0,0,1,26.6,17.143a7.868,7.868,0,0,1,.756-3.288,8.993,8.993,0,0,1,2.318-3.024,11.266,11.266,0,0,1,4.007-2.16,17.167,17.167,0,0,1,5.771-.7,4.857,4.857,0,0,0-1.184.624,2.409,2.409,0,0,0-.781.912,1.855,1.855,0,0,0-.554-0.1,2.792,2.792,0,0,0-2.218,1.2,3.663,3.663,0,0,0-.554,1.224,5.572,5.572,0,0,0-.2,1.464,2.3,2.3,0,0,0,.554,1.728,0.852,0.852,0,0,0,.554.288,0.105,0.105,0,0,0,.076-0.024,0.106,0.106,0,0,1,.076-0.024,0.634,0.634,0,0,1-.2-0.48,1.141,1.141,0,0,1,.428-0.864,4.266,4.266,0,0,1,.781-0.576A7.133,7.133,0,0,0,37,12.967a3.813,3.813,0,0,0,.882-0.72,1.869,1.869,0,0,0,.5-1.344,1.32,1.32,0,0,0-.6-1.2,3.44,3.44,0,0,1,1.008-.96,4.512,4.512,0,0,1,1.663-.72q0.5,0.048,1.033.072a7.393,7.393,0,0,1,1.033.12,44.081,44.081,0,0,1,6.124,1.392q3,0.912,5.972,1.872a28.388,28.388,0,0,0-5.746,5.328q-2.722,3.265-5.242,6.768-2.621,3.648-5.292,7.344a55.5,55.5,0,0,1-5.746,6.768,24.341,24.341,0,0,1-7.006,4.9,1.627,1.627,0,0,1-1.134-.312,3.113,3.113,0,0,1-.68-0.648,1.566,1.566,0,0,1-.3-0.912,0.743,0.743,0,0,1,.353-0.72q0.352-.192.252-0.312a0.517,0.517,0,0,0-.4-0.12,1.986,1.986,0,0,0-.907.264,0.963,0.963,0,0,0-.5.936,1.718,1.718,0,0,0,.857,1.416,3.263,3.263,0,0,0,1.915.6h0.2a19.867,19.867,0,0,1-4.082,1.32,22.523,22.523,0,0,1-4.637.456q-1.361,0-2.822-.144A13.1,13.1,0,0,1,8.4,42.727a10.026,10.026,0,0,1-3.528-3.408,8.408,8.408,0,0,1-1.26-4.464,9.88,9.88,0,0,1,.5-3.048A10.514,10.514,0,0,1,5.73,28.759a4.059,4.059,0,0,1,2.218-.816,3.288,3.288,0,0,1,.428.024q0.176,0.025.378,0.072a1.854,1.854,0,0,0-.151.768,2.39,2.39,0,0,0,.277,1.08,2.263,2.263,0,0,0,.781.888,4.642,4.642,0,0,0,1.285.648q0.579,0.169,1.084.264a3.119,3.119,0,0,1,1.21.552,1.309,1.309,0,0,1,.655,1.08,1.521,1.521,0,0,1-.1.48,1.54,1.54,0,0,0,.353-0.072,0.829,0.829,0,0,0,.454-0.408,2.468,2.468,0,0,0,.3-1.248,5.5,5.5,0,0,0-.554-2.3,5.091,5.091,0,0,0-1.31-1.824,3.671,3.671,0,0,0-2.369-.912,2.175,2.175,0,0,0-1.562.528,1.415,1.415,0,0,0-.5-0.1H8.1a5.3,5.3,0,0,0-.706.048q-0.353.048-.756,0.144a14.479,14.479,0,0,1,5.342-3.528,17.859,17.859,0,0,1,6.6-1.272,14.578,14.578,0,0,1,4.435.672,11.037,11.037,0,0,1,3.78,2.064,7.378,7.378,0,0,1,1.94,2.472,6.443,6.443,0,0,1,.68,2.808,4.444,4.444,0,0,1-.857,2.64v0.048a4.075,4.075,0,0,1-1.21.432,1.714,1.714,0,0,1-1.159-.312,1.027,1.027,0,0,1-.5-0.84,0.654,0.654,0,0,1,.1-0.384,0.269,0.269,0,0,0,.05-0.264,0.2,0.2,0,0,0-.2-0.12,0.3,0.3,0,0,0-.2.1,1.284,1.284,0,0,0-.454,1.1,0.766,0.766,0,0,0,.353.672,0.415,0.415,0,0,1-.126-0.024,0.592,0.592,0,0,0-.176-0.024,2.063,2.063,0,0,0-.328-0.072,3.288,3.288,0,0,0-.428-0.024,8.241,8.241,0,0,0-1.84.24,4.61,4.61,0,0,0-1.739.768,1.934,1.934,0,0,0-.857,1.536,1.322,1.322,0,0,0,.151.624q0.1,0.288.2,0.144t0.3-.48a1.727,1.727,0,0,1,1.512-.576,3.148,3.148,0,0,1,.958.144,12.448,12.448,0,0,0,1.562.48,6.528,6.528,0,0,0,1.512.192,3.916,3.916,0,0,0,1.361-.24,2.711,2.711,0,0,0,1.588-1.32,3.067,3.067,0,0,0,.277-1.656,5.192,5.192,0,0,0,.806-2.88,6.989,6.989,0,0,0-.151-1.44,2.417,2.417,0,0,0,.958.72,2.3,2.3,0,0,0,1.058.288,1.414,1.414,0,0,0,.932-0.312,1.086,1.086,0,0,0,.378-0.888q0-.816-0.353-0.816a0.313,0.313,0,0,0-.2.24q-0.051.529-1.058,0.528h-0.3a0.988,0.988,0,0,1-.3-0.048,5.6,5.6,0,0,1-.706-0.288,2.878,2.878,0,0,1-.756-0.528,9.916,9.916,0,0,0-.907-1.7A6.1,6.1,0,0,0,27.3,25.063a12.133,12.133,0,0,0-4.334-2.424,17.8,17.8,0,0,0-5.141-.84,3.108,3.108,0,0,0,1.462-1.632,2.141,2.141,0,0,0,1.386-.888,3.1,3.1,0,0,0,.63-1.992,4.3,4.3,0,0,0-.5-1.848,6.8,6.8,0,0,0-1.26-1.8,2.251,2.251,0,0,0-1.613-.768,0.985,0.985,0,0,0-.5.1,0.558,0.558,0,0,0-.2.192,0.871,0.871,0,0,1,.68.48,1.938,1.938,0,0,1,.176.816,2.1,2.1,0,0,1-.1.648q-0.1.313-.2,0.552-0.2.385-.454,0.936a3.284,3.284,0,0,0-.252,1.368,2.328,2.328,0,0,0,.479,1.416,1.946,1.946,0,0,0,1.235.792,2.944,2.944,0,0,1-1.462,1.248,4.788,4.788,0,0,1-1.058.36,5.22,5.22,0,0,1-1.109.12c-0.168,0-.252.032-0.252,0.1a19.44,19.44,0,0,0-4.183,1.032,16.415,16.415,0,0,0-3.679,1.9,3.3,3.3,0,0,0,.731-1.152A3.506,3.506,0,0,0,8,22.567a2.253,2.253,0,0,0-.479-1.488A1.483,1.483,0,0,0,6.334,20.5a1.808,1.808,0,0,0-1.008.336,0.661,0.661,0,0,0-.4.528c0,0.128.083,0.192,0.252,0.192h0.1a0.9,0.9,0,0,1,1.058.528,2.757,2.757,0,0,1,.454,1.488,4.185,4.185,0,0,1-.151,1.056,2.319,2.319,0,0,1-.554,1.008A10.2,10.2,0,0,0,3.966,27.8,12.819,12.819,0,0,0,2.05,31.231a9.94,9.94,0,0,0-.6,3.336A8.84,8.84,0,0,0,3.31,40.015,12.516,12.516,0,0,0,8.25,43.879a4.39,4.39,0,0,0-1.109.144A1.644,1.644,0,0,0,5.78,45.511a1.219,1.219,0,0,0,.655,1.008,0.934,0.934,0,0,0,.454.144c0.134,0,.2-0.048.2-0.144h0ZM59.506,12.055a16.409,16.409,0,0,1-2.167-.528A12.606,12.606,0,0,1,59.506,10.3a6.022,6.022,0,0,1,2.117-.5,2.853,2.853,0,0,1,1.588.336,0.947,0.947,0,0,1,.479.768,1.089,1.089,0,0,1-.5.864,2.419,2.419,0,0,1-1.361.432A15.264,15.264,0,0,1,59.506,12.055ZM67.52,37.591a15.507,15.507,0,0,0,2.495-2.064,29.008,29.008,0,0,0,1.991-2.208,7.2,7.2,0,0,0-.328,1.152,6.041,6.041,0,0,0-.126,1.2,2.681,2.681,0,0,0,.781,2.04,2.907,2.907,0,0,0,2.092.744A5.023,5.023,0,0,0,77.5,37.4a14.833,14.833,0,0,0,2.772-2.808q1.361-1.752,2.772-3.768a0.348,0.348,0,0,0,.1-0.408,0.331,0.331,0,0,0-.3-0.168,0.565,0.565,0,0,0-.277.048,0.841,0.841,0,0,0-.126.1q-0.958,1.344-2.167,3.1a13.345,13.345,0,0,1-2.822,3,7.417,7.417,0,0,1-1.663.984,3.791,3.791,0,0,1-1.361.36,0.849,0.849,0,0,1-.907-1.008,4.47,4.47,0,0,1,.3-1.392,18.147,18.147,0,0,1,1.537-3.024q0.983-1.584,1.487-2.4a33.719,33.719,0,0,1,2.142-2.832q1.134-1.343,2.117-2.328t1.386-1.464Q82.841,23,82.01,22.807a7.736,7.736,0,0,0-1.739-.192,3.231,3.231,0,0,0-1.562.24l-2.822,4.08a6.212,6.212,0,0,0,.3-1.872,2.647,2.647,0,0,0-.5-1.632,2.2,2.2,0,0,0-1.865-.672,8.483,8.483,0,0,0-3.452.744,14.043,14.043,0,0,0-3.15,1.92,17.022,17.022,0,0,0-2.57,2.544,11.41,11.41,0,0,0-1.663,2.664,10.721,10.721,0,0,0-1.008,4.128,4.4,4.4,0,0,0,.756,2.664A2.522,2.522,0,0,0,64.9,38.455,4.734,4.734,0,0,0,67.52,37.591Zm-3.226-1.1a6.122,6.122,0,0,1,.529-2.256q0.529-1.3,1.109-2.4l0.731-1.392a13.872,13.872,0,0,1,1.487-2.376,20.588,20.588,0,0,1,2.016-2.28,13.427,13.427,0,0,1,2.142-1.728,3.615,3.615,0,0,1,1.865-.672q1.159,0,1.159,1.536a5.855,5.855,0,0,1-.529,2.256,20.281,20.281,0,0,1-1.31,2.544q-0.782,1.3-1.588,2.448a21.63,21.63,0,0,1-2.117,2.616,14.076,14.076,0,0,1-2.293,1.992,3.864,3.864,0,0,1-2.142.768,0.934,0.934,0,0,1-1.058-1.056h0Zm33.113,1.392a16.488,16.488,0,0,0,3.2-2.976,42.769,42.769,0,0,0,3.049-4.08q0.151-.576-0.2-0.576a1.661,1.661,0,0,0-.2.024,0.5,0.5,0,0,0-.3.264,28.1,28.1,0,0,1-2.747,3.672,18.918,18.918,0,0,1-2.8,2.616,5.2,5.2,0,0,1-2.873,1.3,0.956,0.956,0,0,1-1.058-1.1,3.164,3.164,0,0,1,.126-0.84,4.129,4.129,0,0,1,.479-1.032,16.73,16.73,0,0,1,1.714-2.616q1.008-1.271,1.361-1.752,0.554-.672,1.436-1.872a20.008,20.008,0,0,0,1.588-2.544,5.162,5.162,0,0,0,.7-2.3,1.506,1.506,0,0,0-.68-1.3,2.772,2.772,0,0,0-1.638-.48,6.824,6.824,0,0,0-2.948.84,13.416,13.416,0,0,0-3.452,2.616q-0.2.192-.378,0.384t-0.378.384a5.811,5.811,0,0,0,.454-2.112,2.23,2.23,0,0,0-.5-1.44,1.771,1.771,0,0,0-1.462-.624,2.881,2.881,0,0,0-1.89.744,14.693,14.693,0,0,0-1.89,1.992q-0.958,1.249-1.915,2.664t-1.865,2.808q-0.2.529,0.2,0.528a0.549,0.549,0,0,0,.5-0.24q1.915-2.927,3.1-4.44a21.75,21.75,0,0,1,1.94-2.232,3.369,3.369,0,0,1,.756-0.624,1.39,1.39,0,0,1,.655-0.24,0.394,0.394,0,0,1,.4.48,3.673,3.673,0,0,1-.454,1.416,22.089,22.089,0,0,1-1.109,1.992q-0.656,1.056-1.21,1.968-1.009,1.584-2.218,3.384t-2.293,3.336q-1.084,1.537-1.739,2.4a6.032,6.032,0,0,0,1.663.144q0.554,0,1.084-.048a3.11,3.11,0,0,0,.882-0.192q0.4-.767,1.235-2.208T87.7,32.791q1.134-1.728,2.52-3.48a30.687,30.687,0,0,1,2.9-3.192,16.844,16.844,0,0,1,2.57-2.04,3.449,3.449,0,0,1,1.512-.6,0.587,0.587,0,0,1,.655.672,3.109,3.109,0,0,1-.554,1.488Q96.3,27.127,94.937,28.9a29.935,29.935,0,0,0-2.369,3.576,7.113,7.113,0,0,0-1.008,3.48,2.673,2.673,0,0,0,.857,2.136,3.045,3.045,0,0,0,2.066.744,5.3,5.3,0,0,0,2.923-.96h0Zm9.828-.288a15.526,15.526,0,0,0,2.5-2.064,29.025,29.025,0,0,0,1.99-2.208,7.22,7.22,0,0,0-.327,1.152,5.99,5.99,0,0,0-.126,1.2,2.682,2.682,0,0,0,.781,2.04,2.906,2.906,0,0,0,2.092.744,5.023,5.023,0,0,0,3.074-1.056,14.836,14.836,0,0,0,2.772-2.808q1.36-1.752,2.772-3.768a0.348,0.348,0,0,0,.1-0.408,0.333,0.333,0,0,0-.3-0.168,0.568,0.568,0,0,0-.277.048,0.856,0.856,0,0,0-.126.1q-0.959,1.344-2.167,3.1a13.355,13.355,0,0,1-2.822,3,7.422,7.422,0,0,1-1.664.984,3.786,3.786,0,0,1-1.36.36,0.85,0.85,0,0,1-.908-1.008,4.462,4.462,0,0,1,.3-1.392,18.138,18.138,0,0,1,1.537-3.024q0.983-1.584,1.487-2.4a33.569,33.569,0,0,1,2.142-2.832q1.134-1.343,2.117-2.328t1.386-1.464q0.351-.384-0.479-0.576a7.74,7.74,0,0,0-1.739-.192,3.229,3.229,0,0,0-1.562.24l-2.823,4.08a6.2,6.2,0,0,0,.3-1.872,2.65,2.65,0,0,0-.5-1.632,2.207,2.207,0,0,0-1.865-.672,8.487,8.487,0,0,0-3.453.744,14.043,14.043,0,0,0-3.15,1.92,17.028,17.028,0,0,0-2.57,2.544,11.382,11.382,0,0,0-1.663,2.664,10.712,10.712,0,0,0-1.008,4.128,4.4,4.4,0,0,0,.756,2.664,2.522,2.522,0,0,0,2.167,1.032A4.735,4.735,0,0,0,107.235,37.591Zm-3.226-1.1a6.138,6.138,0,0,1,.529-2.256q0.53-1.3,1.109-2.4l0.731-1.392a13.862,13.862,0,0,1,1.487-2.376,20.547,20.547,0,0,1,2.016-2.28,13.405,13.405,0,0,1,2.142-1.728,3.613,3.613,0,0,1,1.865-.672q1.158,0,1.159,1.536a5.869,5.869,0,0,1-.529,2.256,20.248,20.248,0,0,1-1.311,2.544q-0.781,1.3-1.587,2.448a21.709,21.709,0,0,1-2.117,2.616,14.1,14.1,0,0,1-2.293,1.992,3.866,3.866,0,0,1-2.142.768,0.935,0.935,0,0,1-1.059-1.056h0Zm32.13-6.216a0.524,0.524,0,0,0-.277.264,13.958,13.958,0,0,1-3.881,4.08,16.253,16.253,0,0,1-3.881,1.92,6.276,6.276,0,0,0,2.067-3.264,6.848,6.848,0,0,0,.3-1.968,6.767,6.767,0,0,0-.277-1.968q-0.278-.911-0.58-1.776t-0.63-1.728a4.83,4.83,0,0,1-.327-1.728,2.887,2.887,0,0,1,.151-0.96,1.688,1.688,0,0,1,.957-0.936,3.549,3.549,0,0,1,1.613-.408,1.58,1.58,0,0,0,1.084-.336,0.93,0.93,0,0,0,.378-0.672,0.741,0.741,0,0,0-.277-0.576,1.245,1.245,0,0,0-.832-0.24h-0.252a1,1,0,0,0-.3.048,4.825,4.825,0,0,0-1.764,1.1,21.253,21.253,0,0,0-2.52,2.544q-1.211,1.44-2.319,3.048T122.707,29.5q-0.756,1.177-.907,1.416a4.233,4.233,0,0,0-1.159-.144,6.6,6.6,0,0,0-.983.072,2.406,2.406,0,0,0-.882.312,3.633,3.633,0,0,0-1.235,1.128,3.055,3.055,0,0,0-.579,1.848,3.7,3.7,0,0,0,.3,1.44,3.932,3.932,0,0,0,2.167,2.064,8.367,8.367,0,0,0,3.226.624,10.846,10.846,0,0,0,2.52-.288,22.019,22.019,0,0,0,6-2.04,14.228,14.228,0,0,0,5.392-5.112,0.478,0.478,0,0,0,0-.432,0.3,0.3,0,0,0-.252-0.144A1.127,1.127,0,0,0,136.139,30.271Zm-16.556,6.7a3.322,3.322,0,0,1-1.21-1.176,3.116,3.116,0,0,1-.5-1.7,2.676,2.676,0,0,1,.252-1.128,2.871,2.871,0,0,1,.857-1.032,2.62,2.62,0,0,1,1.713-.576,3.178,3.178,0,0,1,1.336.288,2.128,2.128,0,0,1,.983.912,1.227,1.227,0,0,1,.151.576,1.09,1.09,0,0,1-.5.864,0.532,0.532,0,0,0-.3.432c0,0.192.167,0.288,0.5,0.288a1.108,1.108,0,0,0,1.033-.456,1.308,1.308,0,0,0,.227-0.84,2.646,2.646,0,0,0-.58-1.416,4.226,4.226,0,0,0-1.033-.792,40.654,40.654,0,0,1,2.7-3.936q1.386-1.775,2.5-3.216a8.687,8.687,0,0,0,.126,1.968A11.733,11.733,0,0,1,128,28.039a15,15,0,0,1-.176,1.968,20.8,20.8,0,0,1-.554,2.616,12.666,12.666,0,0,1-.983,2.52,4.041,4.041,0,0,1-1.512,1.68,4.709,4.709,0,0,1-1.361.624,5.178,5.178,0,0,1-1.361.192,4.663,4.663,0,0,1-2.469-.672h0Zm20.562,0.624a15.526,15.526,0,0,0,2.495-2.064,29.057,29.057,0,0,0,1.991-2.208,7.219,7.219,0,0,0-.328,1.152,6.064,6.064,0,0,0-.126,1.2,2.682,2.682,0,0,0,.781,2.04,2.909,2.909,0,0,0,2.092.744,5.021,5.021,0,0,0,3.074-1.056,14.806,14.806,0,0,0,2.772-2.808q1.362-1.752,2.772-3.768a0.348,0.348,0,0,0,.1-0.408,0.331,0.331,0,0,0-.3-0.168,0.562,0.562,0,0,0-.277.048,0.806,0.806,0,0,0-.126.1q-0.958,1.344-2.168,3.1a13.332,13.332,0,0,1-2.822,3,7.416,7.416,0,0,1-1.663.984,3.8,3.8,0,0,1-1.361.36,0.849,0.849,0,0,1-.907-1.008,4.485,4.485,0,0,1,.3-1.392,18.138,18.138,0,0,1,1.537-3.024q0.984-1.584,1.487-2.4a33.784,33.784,0,0,1,2.142-2.832q1.134-1.343,2.117-2.328t1.386-1.464q0.352-.384-0.479-0.576a7.734,7.734,0,0,0-1.739-.192,3.231,3.231,0,0,0-1.562.24l-2.822,4.08a6.23,6.23,0,0,0,.3-1.872,2.65,2.65,0,0,0-.5-1.632,2.205,2.205,0,0,0-1.865-.672,8.482,8.482,0,0,0-3.452.744,14.043,14.043,0,0,0-3.15,1.92,17.036,17.036,0,0,0-2.571,2.544,11.415,11.415,0,0,0-1.663,2.664,10.73,10.73,0,0,0-1.008,4.128,4.4,4.4,0,0,0,.756,2.664,2.522,2.522,0,0,0,2.167,1.032A4.733,4.733,0,0,0,140.145,37.591Zm-3.225-1.1a6.118,6.118,0,0,1,.529-2.256q0.529-1.3,1.109-2.4c0.385-.736.63-1.2,0.73-1.392a13.924,13.924,0,0,1,1.487-2.376,20.547,20.547,0,0,1,2.016-2.28,13.449,13.449,0,0,1,2.142-1.728,3.616,3.616,0,0,1,1.865-.672q1.158,0,1.159,1.536a5.85,5.85,0,0,1-.529,2.256,20.37,20.37,0,0,1-1.31,2.544q-0.783,1.3-1.588,2.448a21.612,21.612,0,0,1-2.117,2.616,14.063,14.063,0,0,1-2.293,1.992,3.863,3.863,0,0,1-2.142.768,0.934,0.934,0,0,1-1.058-1.056h0Zm28.072,1.272a13.732,13.732,0,0,0,2.646-2.04,27.936,27.936,0,0,0,2.344-2.568q1.058-1.32,1.764-2.328a0.471,0.471,0,0,0,.05-0.36,0.233,0.233,0,0,0-.252-0.168,0.55,0.55,0,0,0-.5.24,22.7,22.7,0,0,1-3.578,4.392,15.981,15.981,0,0,1-3.024,2.28,3.191,3.191,0,0,1-1.512.48,0.917,0.917,0,0,1-.958-1.1V36.439a6.4,6.4,0,0,1,.479-1.848q0.378-.888.68-1.752,0.151-.479.278-0.984a4.1,4.1,0,0,0,.126-0.984,3.215,3.215,0,0,0-.1-0.816,2.086,2.086,0,0,0-.353-0.72,19.19,19.19,0,0,0,2.117-.264,10.1,10.1,0,0,0,2.268-.648,9.766,9.766,0,0,0,3.377-2.184A3.38,3.38,0,0,0,171.9,24.1a1.678,1.678,0,0,0-.63-1.344,2.547,2.547,0,0,0-1.688-.528,6.4,6.4,0,0,0-2.6.648,16.748,16.748,0,0,0-2.873,1.68,32.812,32.812,0,0,0-2.747,2.208A31.241,31.241,0,0,0,159.1,29q-0.5.576-1.108,1.2l-1.26,1.3q1.36-1.824,3.124-4.272t3.377-4.656q1.108-.24,3.2-0.888a22.455,22.455,0,0,0,4.712-2.208,26.005,26.005,0,0,0,5.342-4.392,22.086,22.086,0,0,0,1.966-2.52,16.13,16.13,0,0,0,1.562-2.88,6.785,6.785,0,0,0,.605-2.52,1.511,1.511,0,0,0-1.159-1.68,4.233,4.233,0,0,0-1.159-.144,6.576,6.576,0,0,0-1.537.216,8.076,8.076,0,0,0-1.991.84,21.256,21.256,0,0,0-4.41,3.264,47.1,47.1,0,0,0-4.309,4.68q-2.118,2.617-4.058,5.424t-3.654,5.472q-1.713,2.664-3.124,4.824-2.018,3.024-3.377,5.256t-1.764,2.856c-0.033.1,0.234,0.144,0.806,0.144,0.336,0,.681-0.017,1.033-0.048a4.253,4.253,0,0,0,.681-0.1,24.412,24.412,0,0,1,2.5-3.936,37.7,37.7,0,0,1,3-3.264,8.8,8.8,0,0,1,1.21-.888,2.826,2.826,0,0,1,1.411-.552,0.48,0.48,0,0,1,.5.576,1.847,1.847,0,0,1-.025.264,3.591,3.591,0,0,1-.076.36,13.753,13.753,0,0,1-1.134,2.64A5.753,5.753,0,0,0,159.2,36.1a1.039,1.039,0,0,0,.025.216,1.056,1.056,0,0,1,.026.216,1.877,1.877,0,0,0,1.033,1.488,4.073,4.073,0,0,0,2.041.528A5.291,5.291,0,0,0,164.992,37.759Zm0.429-18.312q1.134-1.584,2.671-3.6t3.251-3.96A33.8,33.8,0,0,1,174.619,8.6a14.345,14.345,0,0,1,2.167-1.512,4.3,4.3,0,0,1,2.016-.7,0.739,0.739,0,0,1,.806.864,3.666,3.666,0,0,1-.176.984,10.809,10.809,0,0,1-.58,1.464,14.689,14.689,0,0,1-1.789,2.64q-1.185,1.44-2.092,2.4a25.5,25.5,0,0,1-4.46,3.84,24.291,24.291,0,0,1-3.931,2.16,15.8,15.8,0,0,1-2.7.912Q164.287,21.031,165.421,19.447Zm-5.267,9.5a39.644,39.644,0,0,1,3.5-3.048,23.7,23.7,0,0,1,3.452-2.28,5.268,5.268,0,0,1,2.066-.672q0.706,0,.706.528a2.645,2.645,0,0,1-.832,1.464,8.819,8.819,0,0,1-2.444,1.8,19.142,19.142,0,0,1-3.452,1.56,11.416,11.416,0,0,1-3,.7V28.951Zm15.169,8.64a15.482,15.482,0,0,0,2.5-2.064,29.057,29.057,0,0,0,1.991-2.208,7.219,7.219,0,0,0-.328,1.152,6.064,6.064,0,0,0-.126,1.2,2.679,2.679,0,0,0,.782,2.04,2.9,2.9,0,0,0,2.091.744A5.024,5.024,0,0,0,185.3,37.4a14.866,14.866,0,0,0,2.772-2.808q1.361-1.752,2.772-3.768a0.347,0.347,0,0,0,.1-0.408,0.33,0.33,0,0,0-.3-0.168,0.562,0.562,0,0,0-.277.048,0.806,0.806,0,0,0-.126.1q-0.958,1.344-2.167,3.1a13.359,13.359,0,0,1-2.823,3,7.416,7.416,0,0,1-1.663.984,3.79,3.79,0,0,1-1.361.36,0.849,0.849,0,0,1-.907-1.008,4.485,4.485,0,0,1,.3-1.392,18.147,18.147,0,0,1,1.538-3.024q0.983-1.584,1.486-2.4a33.784,33.784,0,0,1,2.142-2.832q1.134-1.343,2.117-2.328t1.386-1.464q0.352-.384-0.479-0.576a7.731,7.731,0,0,0-1.738-.192,3.233,3.233,0,0,0-1.563.24l-2.822,4.08a6.23,6.23,0,0,0,.3-1.872,2.644,2.644,0,0,0-.5-1.632,2.2,2.2,0,0,0-1.865-.672,8.482,8.482,0,0,0-3.452.744,14.043,14.043,0,0,0-3.15,1.92,16.982,16.982,0,0,0-2.57,2.544,11.422,11.422,0,0,0-1.664,2.664,10.73,10.73,0,0,0-1.008,4.128,4.4,4.4,0,0,0,.756,2.664,2.524,2.524,0,0,0,2.168,1.032A4.732,4.732,0,0,0,175.323,37.591Zm-3.225-1.1a6.118,6.118,0,0,1,.529-2.256q0.529-1.3,1.109-2.4l0.731-1.392a13.853,13.853,0,0,1,1.486-2.376,20.753,20.753,0,0,1,2.016-2.28,13.494,13.494,0,0,1,2.142-1.728,3.616,3.616,0,0,1,1.865-.672q1.159,0,1.159,1.536a5.85,5.85,0,0,1-.529,2.256,20.37,20.37,0,0,1-1.31,2.544q-0.781,1.3-1.588,2.448a21.517,21.517,0,0,1-2.117,2.616,14.063,14.063,0,0,1-2.293,1.992,3.863,3.863,0,0,1-2.142.768,0.934,0.934,0,0,1-1.058-1.056h0Z"/>
</svg>
